<svg xmlns="http://www.w3.org/2000/svg" viewBox="0 0 400 400"><path d="M350 400H50a50.018 50.018 0 0 1-50-50V50A50.018 50.018 0 0 1 50 0h300a50.018 50.018 0 0 1 50 50v300a50.018 50.018 0 0 1-50 50Z" style="fill:#1d9bf0"/><path d="M153.6 301.6c94.3 0 145.9-78.2 145.9-145.9 0-2.2 0-4.4-.1-6.6a104.468 104.468 0 0 0 25.6-26.6 103.926 103.926 0 0 1-29.5 8.1 51.592 51.592 0 0 0 22.6-28.4 102 102 0 0 1-32.6 12.4 51.291 51.291 0 0 0-88.7 35.1 56.677 56.677 0 0 0 1.3 11.7 145.613 145.613 0 0 1-105.7-53.6 51.485 51.485 0 0 0 15.9 68.5 51.867 51.867 0 0 1-23.2-6.4v.7a51.386 51.386 0 0 0 41.1 50.3 51.577 51.577 0 0 1-23.1.9 51.276 51.276 0 0 0 47.9 35.6 102.847 102.847 0 0 1-63.7 22 98.678 98.678 0 0 1-12.2-.7 145.862 145.862 0 0 0 78.5 22.9" style="fill:#fff"/></svg>